<svg width="35" height="35" viewBox="0 0 35 35" fill="none" xmlns="http://www.w3.org/2000/svg">
<path d="M17.3846 34.9999C13.0658 34.9999 8.75636 35.0098 4.43761 34.9901C3.85374 34.9901 3.19574 34.9508 2.70455 34.6753C1.6851 34.0851 0.841741 33.2293 0.572977 31.9406C0.4803 31.498 0.452496 31.0356 0.452496 30.5831C0.452496 21.7987 0.461763 13.0143 0.43396 4.23968C0.43396 1.94766 2.01874 0.255702 3.98349 0.0687988C5.30877 -0.059082 6.6526 0.0687988 7.98715 0.0687988C15.4106 0.0687988 22.8433 0.0687988 30.2667 0.0589618C31.3696 0.0589618 32.3149 0.403257 33.1212 1.17054C33.9182 1.93783 34.3723 2.89201 34.3723 4.06262C34.3723 12.8077 34.363 21.5626 34.3723 30.3077C34.3723 31.5865 34.2055 32.7473 33.3343 33.7015C32.5095 34.6065 31.4993 35.0196 30.3131 35.0098C25.9943 35.0098 21.6848 35.0098 17.3661 35.0098L17.3846 34.9999ZM17.3661 30.9963C21.2585 30.9963 25.1417 30.9963 29.0341 30.9963C29.4697 30.9963 29.8497 30.8782 30.1648 30.5143C30.6096 30.0224 30.4984 29.4027 30.4984 28.842C30.5262 24.2284 30.5169 19.6149 30.4984 15.0013C30.4984 14.9423 30.3872 14.8243 30.3316 14.8243C29.4512 14.8144 28.5707 14.8144 27.681 14.8243C27.6254 14.8243 27.5142 14.962 27.5235 15.0309C27.6162 15.6604 27.7644 16.2703 27.82 16.8999C27.9591 18.3951 27.6903 19.851 27.1806 21.238C26.1889 23.953 24.4373 25.9401 21.9443 27.1697C21.2029 27.5337 20.4151 27.8681 19.6181 28.0058C18.6079 28.1927 17.57 28.2321 16.5412 28.2223C15.3457 28.2124 14.2058 27.8386 13.1122 27.3173C11.6572 26.609 10.3411 25.7138 9.38657 24.317C8.87684 23.5694 8.35785 22.8217 7.95934 22.0151C7.63497 21.3659 7.41254 20.6379 7.24573 19.9198C7.07891 19.2017 6.95843 18.4541 6.9677 17.7262C6.97696 16.8605 7.15305 15.9949 7.24573 15.1292C7.24573 15.0407 7.17158 14.8735 7.11598 14.8636C6.23555 14.8341 5.35511 14.8243 4.47468 14.8243C4.40981 14.8243 4.29859 14.9423 4.29859 15.0013C4.29859 15.385 4.31713 15.7686 4.31713 16.1523C4.31713 20.6379 4.31713 25.1236 4.31713 29.6093C4.31713 30.3372 4.89173 30.9864 5.57754 30.9864C9.49778 30.9864 13.418 30.9864 17.3383 30.9864L17.3661 30.9963ZM17.3568 24.2973C17.9407 24.2186 18.5431 24.2088 19.0991 24.0415C21.7497 23.2349 23.4179 21.4544 23.872 18.5033C24.1222 16.9196 23.8349 15.444 23.0564 14.0963C21.9907 12.2568 20.4151 11.1944 18.3762 10.8993C17.2456 10.7321 16.1613 10.8305 15.0862 11.2338C14.0112 11.6371 13.1029 12.3158 12.3708 13.2307C10.8787 15.1194 10.4802 17.2737 11.1752 19.5952C11.9908 22.3004 14.4931 24.3071 17.3475 24.2973H17.3568ZM27.1713 10.8108C27.8386 10.8108 28.5059 10.8108 29.1824 10.8108C29.9238 10.801 30.4984 10.2009 30.517 9.41394C30.5355 8.10562 30.5355 6.78746 30.517 5.47914C30.5077 4.68235 30.0258 4.10196 29.3214 4.09213C27.9127 4.06262 26.504 4.08229 25.1046 4.09213C24.6041 4.09213 23.9369 4.71186 23.9554 5.41028C23.9832 6.78746 23.9554 8.16464 23.9554 9.54182C23.9554 10.1911 24.4837 10.801 25.0953 10.8108C25.7904 10.8305 26.4762 10.8108 27.1713 10.8108Z" fill="white"/>
</svg>
