<svg width="34" height="35" viewBox="0 0 34 35" fill="none" xmlns="http://www.w3.org/2000/svg">
<path d="M17.244 34.6557C13.9725 34.6557 10.701 34.6852 7.4295 34.636C6.72515 34.6262 5.993 34.3901 5.31646 34.1147C3.25903 33.2785 1.85033 31.7046 1.05331 29.5405C0.849416 28.9699 0.682601 28.3404 0.673333 27.7403C0.636262 21.5037 0.636263 15.2769 0.608459 9.04021C0.608459 7.82042 0.636261 6.62031 1.06258 5.45954C1.56303 4.0922 2.33225 2.95111 3.43511 2.04611C4.93648 0.816485 6.64174 0.334473 8.51382 0.334473C14.3432 0.334473 20.1633 0.34431 25.9927 0.334473C27.2717 0.334473 28.5321 0.491864 29.672 1.07225C31.8962 2.2035 33.4069 4.02334 33.8239 6.65966C33.9908 7.71221 33.9722 8.80412 33.9722 9.88619C33.9815 15.6408 34.0186 21.3955 33.9629 27.1599C33.9351 30.0028 32.6191 32.1473 30.33 33.6032C29.0974 34.3901 27.735 34.7049 26.2985 34.6951C23.2773 34.6754 20.256 34.6951 17.2347 34.6951V34.6754L17.244 34.6557ZM17.1606 9.67961C16.5026 9.65994 15.7426 9.82716 14.9827 10.2305C14.3432 10.5748 13.8242 11.0076 13.4442 11.6273C12.675 12.8865 12.8974 14.303 12.9067 15.6802C12.9067 15.9458 12.9067 16.1622 12.5916 16.1032C12.3506 16.0638 12.1097 15.9851 11.8687 15.9261C11.4331 15.8277 10.9142 16.0245 10.8307 16.3688C10.7103 16.8508 11.0439 17.077 11.3775 17.2443C11.7204 17.4213 12.0819 17.559 12.4341 17.7263C12.8048 17.8935 12.8696 18.1591 12.6936 18.5427C12.0726 19.9396 11.1088 20.9134 9.69081 21.3659C9.51473 21.425 9.36645 21.6119 9.20889 21.7398C9.35718 21.9463 9.47766 22.2316 9.67228 22.3398C10.0245 22.5366 10.4137 22.6644 10.8029 22.753C11.1551 22.8317 11.3868 22.9399 11.4609 23.3727C11.5166 23.6776 11.6463 24.0121 12.0634 23.9236C13.1662 23.6875 14.1764 23.8744 15.1402 24.563C15.6685 24.9368 16.308 25.222 16.9289 25.3499C17.9298 25.5565 18.801 25.0745 19.598 24.4744C20.3394 23.9137 21.1457 23.7367 22.0539 23.8744C22.851 23.9924 22.8973 24.081 23.1661 23.235C23.2217 23.0481 23.4534 22.8808 23.6387 22.8022C24.065 22.6152 24.5284 22.5267 24.9455 22.3201C25.1401 22.2218 25.2328 21.9168 25.3811 21.7004C25.2235 21.5824 25.0752 21.4151 24.8991 21.3659C23.4812 20.943 22.5544 19.9396 21.9149 18.5821C21.7296 18.1886 21.7944 17.9033 22.2022 17.7164C22.6563 17.5099 23.1105 17.3033 23.5275 17.0377C23.6758 16.9393 23.7963 16.6245 23.7592 16.4376C23.7314 16.2802 23.4812 16.0638 23.3143 16.0441C22.9251 16.0048 22.5173 16.0835 22.1188 16.0933C21.9798 16.0933 21.711 16.054 21.7018 16.0048C21.6647 15.7195 21.6925 15.4342 21.7018 15.1391C21.7481 14.0571 21.8315 12.9553 21.3033 11.9618C20.4228 10.3289 19.0327 9.6501 17.1328 9.68945L17.1606 9.67961Z" fill="white"/>
</svg>
