<svg width="34" height="35" viewBox="0 0 34 35" fill="none" xmlns="http://www.w3.org/2000/svg">
<path d="M33.8086 9.46307C33.7994 8.56791 33.614 7.6629 33.4194 6.79725C32.6038 3.34447 29.2304 -0.0296197 24.8097 0.0687501C21.9645 0.127772 19.1286 0.0785871 16.2741 0.0785871C14.226 0.0785871 12.1778 0.0687501 10.1111 0.0785871C8.98971 0.0884241 7.84978 0.0294022 6.76546 0.255653C4.85631 0.658969 3.26226 1.7312 2.00186 3.32479C0.824857 4.82001 0.0185656 6.47263 3.0158e-05 8.4597C3.0158e-05 13.8504 3.0158e-05 19.2509 3.0158e-05 24.6514C3.0158e-05 26.1171 -0.0463084 27.5631 0.509754 28.9797C2.03893 32.8161 5.3753 34.8228 8.70241 34.872C13.9665 34.9605 19.2305 34.8818 24.4946 34.9015C25.8755 34.9015 27.2008 34.6359 28.4426 34.026C31.9088 32.3341 33.7252 29.3928 33.7901 25.399C33.8828 20.087 33.8364 14.775 33.7994 9.46307H33.8086ZM14.3094 21.4937C14.5689 22.4577 15.4493 23.3135 16.3946 23.5201C17.8218 23.8251 19.2305 23.5103 20.6485 23.3824C21.807 23.284 22.9562 23.2053 24.0961 23.589C25.0414 23.9136 25.4214 24.7301 25.6345 25.6351C25.8106 26.4319 25.7921 27.2385 25.5233 28.0353C25.2175 28.9797 24.5687 29.5994 23.6142 29.6387C22.3352 29.6781 21.0748 29.6486 19.7959 29.6486V29.6879C18.7393 29.6879 17.6643 29.7371 16.5985 29.6781C15.44 29.6191 14.2908 29.4715 13.2251 28.96C11.4642 28.1042 10.0648 26.8254 9.07312 25.0547C8.39658 23.8546 7.99806 22.5364 7.97953 21.1297C7.94246 19.3591 7.93319 17.5983 7.92392 15.8374C7.91466 13.5257 7.84978 11.2042 7.89612 8.89253C7.90539 7.79078 8.11854 6.70872 8.9063 5.8529C9.33261 5.38072 9.87014 5.19382 10.4633 5.14464C11.5013 5.04627 12.4373 5.28235 13.2899 5.95127C13.7997 6.35458 13.8831 6.95464 13.9201 7.51535C13.9943 8.63676 13.9665 9.77786 13.9943 10.9091C14.0035 10.9976 14.1333 11.1649 14.2167 11.1747C15.0879 11.2632 15.9683 11.3813 16.8487 11.3911C17.8867 11.4206 18.9062 11.3518 19.9441 11.3321C20.8338 11.3026 21.7235 11.2337 22.6132 11.2436C23.1137 11.2534 23.6142 11.3321 24.0868 11.4698C24.995 11.7256 25.4214 12.4929 25.6345 13.3782C25.8569 14.3127 25.8291 15.2669 25.4121 16.1522C24.995 17.0277 24.3185 17.4802 23.4103 17.5097C22.4186 17.5491 21.4177 17.5687 20.4261 17.5589C18.934 17.5491 17.4419 17.4802 15.9405 17.4802C15.403 17.4802 14.8562 17.5589 14.3094 17.6081C14.2538 17.6179 14.1704 17.7065 14.1518 17.7753C14.1055 19.0148 13.9479 20.2542 14.2723 21.4937H14.3094Z" fill="white"/>
</svg>
